<svg width="393" height="42" viewBox="0 0 393 42" fill="none" xmlns="http://www.w3.org/2000/svg">
<path d="M67.0017 3.39445H71.2211L75.6776 14.267H75.8673L80.3238 3.39445H84.5432V19.5769H81.2246V9.04409H81.0902L76.9024 19.4979H74.6425L70.4547 9.00458H70.3204V19.5769H67.0017V3.39445ZM90.7598 19.8061C89.9854 19.8061 89.2954 19.6717 88.6896 19.4031C88.0838 19.1291 87.6044 18.7262 87.2515 18.1941C86.9038 17.6568 86.73 16.9878 86.73 16.1871C86.73 15.5129 86.8538 14.9466 87.1014 14.4883C87.3489 14.03 87.6861 13.6612 88.1128 13.3821C88.5394 13.1029 89.0241 12.8922 89.5667 12.7499C90.1145 12.6077 90.6887 12.5076 91.2892 12.4497C91.9951 12.3759 92.564 12.3074 92.9959 12.2442C93.4279 12.1758 93.7413 12.0757 93.9362 11.944C94.1311 11.8123 94.2286 11.6174 94.2286 11.3593V11.3118C94.2286 10.8114 94.0706 10.4242 93.7545 10.1503C93.4437 9.87639 93.0012 9.73943 92.427 9.73943C91.8212 9.73943 91.3392 9.87376 90.981 10.1424C90.6228 10.4058 90.3858 10.7377 90.2699 11.138L87.1567 10.8852C87.3147 10.1477 87.6255 9.51028 88.0891 8.97298C88.5526 8.4304 89.1505 8.01425 89.8827 7.72452C90.6202 7.42953 91.4736 7.28204 92.4428 7.28204C93.1171 7.28204 93.7624 7.36105 94.3787 7.51908C95.0003 7.67711 95.5508 7.92206 96.0302 8.25393C96.5148 8.5858 96.8967 9.01248 97.1759 9.53399C97.4551 10.0502 97.5947 10.6692 97.5947 11.3909V19.5769H94.4024V17.8939H94.3076C94.1127 18.2731 93.8519 18.6076 93.5253 18.8974C93.1987 19.1818 92.8063 19.4057 92.348 19.569C91.8897 19.727 91.3603 19.8061 90.7598 19.8061ZM91.7238 17.483C92.219 17.483 92.6562 17.3855 93.0354 17.1906C93.4147 16.9905 93.7124 16.7218 93.9283 16.3847C94.1443 16.0475 94.2523 15.6656 94.2523 15.2389V13.951C94.1469 14.0195 94.0021 14.0827 93.8177 14.1406C93.6386 14.1933 93.4358 14.2433 93.2093 14.2907C92.9828 14.3329 92.7563 14.3724 92.5297 14.4093C92.3032 14.4409 92.0978 14.4698 91.9134 14.4962C91.5183 14.5541 91.1733 14.6463 90.8783 14.7727C90.5833 14.8992 90.3542 15.0704 90.1909 15.2863C90.0276 15.4971 89.9459 15.7604 89.9459 16.0765C89.9459 16.5348 90.1119 16.8851 90.4437 17.1274C90.7809 17.3645 91.2075 17.483 91.7238 17.483ZM103.572 12.5603V19.5769H100.206V7.44007H103.414V9.5814H103.556C103.825 8.87552 104.275 8.31714 104.908 7.90626C105.54 7.49011 106.306 7.28204 107.207 7.28204C108.05 7.28204 108.785 7.46641 109.411 7.83515C110.038 8.20389 110.526 8.73066 110.873 9.41546C111.221 10.095 111.395 10.9062 111.395 11.8492V19.5769H108.029V12.4497C108.034 11.7069 107.844 11.1275 107.46 10.7113C107.075 10.2899 106.546 10.0792 105.872 10.0792C105.419 10.0792 105.018 10.1766 104.671 10.3716C104.328 10.5665 104.059 10.8509 103.865 11.2249C103.675 11.5937 103.577 12.0388 103.572 12.5603ZM119.579 19.814C118.33 19.814 117.256 19.5611 116.355 19.0554C115.459 18.5444 114.769 17.8228 114.285 16.8904C113.8 15.9527 113.558 14.8439 113.558 13.5638C113.558 12.3153 113.8 11.2197 114.285 10.2767C114.769 9.33381 115.452 8.59897 116.331 8.07219C117.216 7.54542 118.254 7.28204 119.445 7.28204C120.245 7.28204 120.991 7.41109 121.681 7.66921C122.376 7.92206 122.982 8.30397 123.498 8.81494C124.02 9.32591 124.425 9.96857 124.715 10.7429C125.005 11.512 125.149 12.4128 125.149 13.4453V14.3698H114.901V12.2837H121.981C121.981 11.7991 121.876 11.3698 121.665 10.9958C121.454 10.6218 121.162 10.3294 120.788 10.1187C120.419 9.90273 119.99 9.79474 119.5 9.79474C118.989 9.79474 118.536 9.91326 118.141 10.1503C117.751 10.3821 117.445 10.6955 117.224 11.0906C117.003 11.4804 116.89 11.915 116.884 12.3944V14.3777C116.884 14.9782 116.995 15.4971 117.216 15.9343C117.443 16.3715 117.761 16.7086 118.172 16.9457C118.583 17.1827 119.071 17.3012 119.634 17.3012C120.008 17.3012 120.351 17.2486 120.661 17.1432C120.972 17.0379 121.238 16.8798 121.459 16.6691C121.681 16.4584 121.849 16.2003 121.965 15.8948L125.078 16.1002C124.92 16.8482 124.596 17.5014 124.106 18.0598C123.622 18.6129 122.995 19.0449 122.226 19.3557C121.462 19.6612 120.58 19.814 119.579 19.814ZM137.444 10.901L134.363 11.0906C134.31 10.8272 134.197 10.5902 134.023 10.3795C133.849 10.1635 133.62 9.99228 133.336 9.86585C133.056 9.73416 132.722 9.66831 132.332 9.66831C131.811 9.66831 131.371 9.77894 131.012 10.0002C130.654 10.2162 130.475 10.5059 130.475 10.8694C130.475 11.1591 130.591 11.404 130.823 11.6042C131.055 11.8044 131.452 11.965 132.016 12.0862L134.213 12.5287C135.393 12.771 136.272 13.1608 136.852 13.6981C137.431 14.2354 137.721 14.9413 137.721 15.8157C137.721 16.6112 137.486 17.3091 137.018 17.9097C136.554 18.5102 135.917 18.979 135.105 19.3162C134.3 19.648 133.37 19.814 132.316 19.814C130.71 19.814 129.43 19.4795 128.476 18.8105C127.528 18.1362 126.972 17.2196 126.809 16.0607L130.12 15.8869C130.22 16.3768 130.462 16.7508 130.847 17.0089C131.231 17.2617 131.724 17.3882 132.324 17.3882C132.914 17.3882 133.388 17.2749 133.746 17.0484C134.11 16.8166 134.294 16.519 134.3 16.1555C134.294 15.85 134.165 15.5998 133.912 15.4049C133.659 15.2047 133.27 15.0519 132.743 14.9466L130.641 14.5278C129.456 14.2907 128.573 13.8799 127.994 13.2951C127.42 12.7104 127.133 11.965 127.133 11.059C127.133 10.2794 127.343 9.60774 127.765 9.04409C128.192 8.48044 128.789 8.04586 129.559 7.74033C130.333 7.4348 131.239 7.28204 132.277 7.28204C133.81 7.28204 135.016 7.606 135.896 8.25393C136.781 8.90186 137.297 9.7842 137.444 10.901ZM143.207 12.5603V19.5769H139.841V3.39445H143.112V9.5814H143.254C143.528 8.86499 143.97 8.30397 144.581 7.89836C145.193 7.48748 145.959 7.28204 146.881 7.28204C147.724 7.28204 148.458 7.46641 149.085 7.83515C149.717 8.19862 150.207 8.72276 150.555 9.40756C150.908 10.0871 151.082 10.901 151.077 11.8492V19.5769H147.71V12.4497C147.716 11.7017 147.526 11.1196 147.142 10.7034C146.762 10.2873 146.23 10.0792 145.545 10.0792C145.087 10.0792 144.682 10.1766 144.329 10.3716C143.981 10.5665 143.707 10.8509 143.507 11.2249C143.312 11.5937 143.212 12.0388 143.207 12.5603ZM158.939 19.5769V3.39445H165.323C166.545 3.39445 167.588 3.61307 168.452 4.05029C169.321 4.48224 169.982 5.09593 170.435 5.89136C170.894 6.68151 171.123 7.61127 171.123 8.68062C171.123 9.75523 170.891 10.6797 170.428 11.4541C169.964 12.2232 169.292 12.8131 168.413 13.224C167.538 13.6349 166.479 13.8404 165.236 13.8404H160.961V11.0906H164.683C165.336 11.0906 165.879 11.001 166.311 10.8219C166.743 10.6428 167.064 10.3742 167.275 10.016C167.491 9.65778 167.599 9.21266 167.599 8.68062C167.599 8.14331 167.491 7.69028 167.275 7.32154C167.064 6.9528 166.74 6.67361 166.303 6.48397C165.871 6.28907 165.326 6.19162 164.667 6.19162H162.36V19.5769H158.939ZM167.678 12.2126L171.7 19.5769H167.923L163.988 12.2126H167.678ZM173.478 19.5769V7.44007H176.844V19.5769H173.478ZM175.168 5.87555C174.668 5.87555 174.239 5.70962 173.881 5.37775C173.528 5.04062 173.351 4.63764 173.351 4.16881C173.351 3.70525 173.528 3.30754 173.881 2.97567C174.239 2.63854 174.668 2.46997 175.168 2.46997C175.669 2.46997 176.096 2.63854 176.449 2.97567C176.807 3.30754 176.986 3.70525 176.986 4.16881C176.986 4.63764 176.807 5.04062 176.449 5.37775C176.096 5.70962 175.669 5.87555 175.168 5.87555ZM182.906 12.5603V19.5769H179.54V7.44007H182.748V9.5814H182.89C183.159 8.87552 183.609 8.31714 184.241 7.90626C184.874 7.49011 185.64 7.28204 186.541 7.28204C187.384 7.28204 188.119 7.46641 188.745 7.83515C189.372 8.20389 189.86 8.73066 190.207 9.41546C190.555 10.095 190.729 10.9062 190.729 11.8492V19.5769H187.363V12.4497C187.368 11.7069 187.178 11.1275 186.794 10.7113C186.409 10.2899 185.88 10.0792 185.205 10.0792C184.752 10.0792 184.352 10.1766 184.004 10.3716C183.662 10.5665 183.393 10.8509 183.198 11.2249C183.009 11.5937 182.911 12.0388 182.906 12.5603ZM198.913 19.814C197.664 19.814 196.59 19.5611 195.689 19.0554C194.793 18.5444 194.103 17.8228 193.619 16.8904C193.134 15.9527 192.892 14.8439 192.892 13.5638C192.892 12.3153 193.134 11.2197 193.619 10.2767C194.103 9.33381 194.785 8.59897 195.665 8.07219C196.55 7.54542 197.588 7.28204 198.778 7.28204C199.579 7.28204 200.325 7.41109 201.015 7.66921C201.71 7.92206 202.316 8.30397 202.832 8.81494C203.353 9.32591 203.759 9.96857 204.049 10.7429C204.339 11.512 204.483 12.4128 204.483 13.4453V14.3698H194.235V12.2837H201.315C201.315 11.7991 201.209 11.3698 200.999 10.9958C200.788 10.6218 200.496 10.3294 200.122 10.1187C199.753 9.90273 199.324 9.79474 198.834 9.79474C198.323 9.79474 197.87 9.91326 197.475 10.1503C197.085 10.3821 196.779 10.6955 196.558 11.0906C196.337 11.4804 196.224 11.915 196.218 12.3944V14.3777C196.218 14.9782 196.329 15.4971 196.55 15.9343C196.777 16.3715 197.095 16.7086 197.506 16.9457C197.917 17.1827 198.404 17.3012 198.968 17.3012C199.342 17.3012 199.684 17.2486 199.995 17.1432C200.306 17.0379 200.572 16.8798 200.793 16.6691C201.015 16.4584 201.183 16.2003 201.299 15.8948L204.412 16.1002C204.254 16.8482 203.93 17.5014 203.44 18.0598C202.956 18.6129 202.329 19.0449 201.56 19.3557C200.796 19.6612 199.914 19.814 198.913 19.814ZM212.211 19.814C210.963 19.814 209.888 19.5611 208.987 19.0554C208.092 18.5444 207.402 17.8228 206.917 16.8904C206.432 15.9527 206.19 14.8439 206.19 13.5638C206.19 12.3153 206.432 11.2197 206.917 10.2767C207.402 9.33381 208.084 8.59897 208.964 8.07219C209.849 7.54542 210.886 7.28204 212.077 7.28204C212.877 7.28204 213.623 7.41109 214.313 7.66921C215.008 7.92206 215.614 8.30397 216.13 8.81494C216.652 9.32591 217.057 9.96857 217.347 10.7429C217.637 11.512 217.782 12.4128 217.782 13.4453V14.3698H207.533V12.2837H214.613C214.613 11.7991 214.508 11.3698 214.297 10.9958C214.086 10.6218 213.794 10.3294 213.42 10.1187C213.051 9.90273 212.622 9.79474 212.132 9.79474C211.621 9.79474 211.168 9.91326 210.773 10.1503C210.383 10.3821 210.078 10.6955 209.856 11.0906C209.635 11.4804 209.522 11.915 209.517 12.3944V14.3777C209.517 14.9782 209.627 15.4971 209.849 15.9343C210.075 16.3715 210.394 16.7086 210.805 16.9457C211.216 17.1827 211.703 17.3012 212.266 17.3012C212.64 17.3012 212.983 17.2486 213.294 17.1432C213.604 17.0379 213.87 16.8798 214.092 16.6691C214.313 16.4584 214.482 16.2003 214.597 15.8948L217.711 16.1002C217.553 16.8482 217.229 17.5014 216.739 18.0598C216.254 18.6129 215.627 19.0449 214.858 19.3557C214.094 19.6612 213.212 19.814 212.211 19.814ZM230.077 10.901L226.995 11.0906C226.942 10.8272 226.829 10.5902 226.655 10.3795C226.481 10.1635 226.252 9.99228 225.968 9.86585C225.689 9.73416 225.354 9.66831 224.964 9.66831C224.443 9.66831 224.003 9.77894 223.645 10.0002C223.287 10.2162 223.107 10.5059 223.107 10.8694C223.107 11.1591 223.223 11.404 223.455 11.6042C223.687 11.8044 224.085 11.965 224.648 12.0862L226.845 12.5287C228.025 12.771 228.905 13.1608 229.484 13.6981C230.063 14.2354 230.353 14.9413 230.353 15.8157C230.353 16.6112 230.119 17.3091 229.65 17.9097C229.186 18.5102 228.549 18.979 227.738 19.3162C226.932 19.648 226.002 19.814 224.948 19.814C223.342 19.814 222.062 19.4795 221.108 18.8105C220.16 18.1362 219.604 17.2196 219.441 16.0607L222.752 15.8869C222.852 16.3768 223.094 16.7508 223.479 17.0089C223.863 17.2617 224.356 17.3882 224.956 17.3882C225.546 17.3882 226.02 17.2749 226.379 17.0484C226.742 16.8166 226.927 16.519 226.932 16.1555C226.927 15.85 226.797 15.5998 226.545 15.4049C226.292 15.2047 225.902 15.0519 225.375 14.9466L223.273 14.5278C222.088 14.2907 221.206 13.8799 220.626 13.2951C220.052 12.7104 219.765 11.965 219.765 11.059C219.765 10.2794 219.976 9.60774 220.397 9.04409C220.824 8.48044 221.422 8.04586 222.191 7.74033C222.965 7.4348 223.871 7.28204 224.909 7.28204C226.442 7.28204 227.648 7.606 228.528 8.25393C229.413 8.90186 229.929 9.7842 230.077 10.901ZM235.839 12.5603V19.5769H232.473V3.39445H235.744V9.5814H235.886C236.16 8.86499 236.603 8.30397 237.214 7.89836C237.825 7.48748 238.591 7.28204 239.513 7.28204C240.356 7.28204 241.091 7.46641 241.718 7.83515C242.35 8.19862 242.84 8.72276 243.187 9.40756C243.54 10.0871 243.714 10.901 243.709 11.8492V19.5769H240.343V12.4497C240.348 11.7017 240.158 11.1196 239.774 10.7034C239.395 10.2873 238.863 10.0792 238.178 10.0792C237.719 10.0792 237.314 10.1766 236.961 10.3716C236.613 10.5665 236.339 10.8509 236.139 11.2249C235.944 11.5937 235.844 12.0388 235.839 12.5603ZM256.47 19.814C255.353 19.814 254.389 19.6138 253.578 19.2134C252.767 18.8131 252.142 18.2705 251.705 17.5857C251.273 16.8956 251.057 16.1265 251.057 15.2784C251.057 14.6463 251.184 14.0853 251.437 13.5954C251.689 13.1055 252.042 12.6551 252.495 12.2442C252.948 11.8281 253.475 11.4146 254.076 11.0037L257.213 8.94137C257.618 8.68325 257.916 8.41196 258.106 8.1275C258.295 7.83778 258.39 7.52435 258.39 7.18722C258.39 6.86589 258.261 6.56826 258.003 6.29434C257.745 6.02042 257.379 5.88609 256.904 5.89136C256.588 5.89136 256.314 5.96247 256.083 6.1047C255.851 6.24166 255.669 6.4234 255.538 6.64991C255.411 6.87115 255.348 7.11874 255.348 7.39266C255.348 7.72979 255.443 8.07219 255.632 8.41986C255.822 8.76753 256.075 9.13627 256.391 9.52609C256.707 9.91063 257.052 10.3268 257.426 10.7745L265.098 19.5769H261.59L255.19 12.4497C254.768 11.9703 254.347 11.4699 253.926 10.9484C253.509 10.4216 253.162 9.86322 252.883 9.27324C252.603 8.67798 252.464 8.03269 252.464 7.33735C252.464 6.55245 252.646 5.84658 253.009 5.21972C253.378 4.59286 253.894 4.0977 254.558 3.73422C255.221 3.36548 255.996 3.18111 256.881 3.18111C257.745 3.18111 258.49 3.35758 259.117 3.71052C259.749 4.05819 260.234 4.52175 260.571 5.1012C260.913 5.67538 261.084 6.30751 261.084 6.99758C261.084 7.7614 260.895 8.4541 260.516 9.0757C260.141 9.69202 259.615 10.2451 258.935 10.735L255.632 13.1134C255.185 13.44 254.853 13.7745 254.637 14.1169C254.426 14.454 254.321 14.778 254.321 15.0888C254.321 15.4733 254.415 15.8184 254.605 16.1239C254.795 16.4294 255.063 16.6718 255.411 16.8509C255.759 17.0247 256.167 17.1116 256.636 17.1116C257.205 17.1116 257.766 16.9825 258.319 16.7244C258.877 16.461 259.383 16.0897 259.836 15.6103C260.294 15.1257 260.66 14.5515 260.934 13.8878C261.208 13.224 261.345 12.4892 261.345 11.6832H264.134C264.134 12.6736 264.026 13.5664 263.81 14.3619C263.594 15.152 263.294 15.8421 262.91 16.4321C262.525 17.0168 262.085 17.4962 261.59 17.8702C261.432 17.9702 261.279 18.0651 261.132 18.1546C260.984 18.2442 260.832 18.339 260.674 18.4391C260.073 18.9237 259.401 19.274 258.659 19.49C257.921 19.706 257.192 19.814 256.47 19.814ZM274.503 19.5769H270.837L276.423 3.39445H280.832L286.411 19.5769H282.745L278.691 7.0924H278.565L274.503 19.5769ZM274.274 13.2161H282.934V15.8869H274.274V13.2161ZM298.111 10.901L295.03 11.0906C294.977 10.8272 294.864 10.5902 294.69 10.3795C294.516 10.1635 294.287 9.99228 294.002 9.86585C293.723 9.73416 293.389 9.66831 292.999 9.66831C292.477 9.66831 292.038 9.77894 291.679 10.0002C291.321 10.2162 291.142 10.5059 291.142 10.8694C291.142 11.1591 291.258 11.404 291.49 11.6042C291.722 11.8044 292.119 11.965 292.683 12.0862L294.88 12.5287C296.059 12.771 296.939 13.1608 297.519 13.6981C298.098 14.2354 298.388 14.9413 298.388 15.8157C298.388 16.6112 298.153 17.3091 297.685 17.9097C297.221 18.5102 296.584 18.979 295.772 19.3162C294.966 19.648 294.037 19.814 292.983 19.814C291.376 19.814 290.096 19.4795 289.143 18.8105C288.195 18.1362 287.639 17.2196 287.476 16.0607L290.786 15.8869C290.887 16.3768 291.129 16.7508 291.513 17.0089C291.898 17.2617 292.391 17.3882 292.991 17.3882C293.581 17.3882 294.055 17.2749 294.413 17.0484C294.777 16.8166 294.961 16.519 294.966 16.1555C294.961 15.85 294.832 15.5998 294.579 15.4049C294.326 15.2047 293.937 15.0519 293.41 14.9466L291.308 14.5278C290.123 14.2907 289.24 13.8799 288.661 13.2951C288.087 12.7104 287.8 11.965 287.8 11.059C287.8 10.2794 288.01 9.60774 288.432 9.04409C288.858 8.48044 289.456 8.04586 290.225 7.74033C291 7.4348 291.906 7.28204 292.944 7.28204C294.477 7.28204 295.683 7.606 296.563 8.25393C297.448 8.90186 297.964 9.7842 298.111 10.901ZM310.606 10.901L307.524 11.0906C307.471 10.8272 307.358 10.5902 307.184 10.3795C307.01 10.1635 306.781 9.99228 306.497 9.86585C306.218 9.73416 305.883 9.66831 305.493 9.66831C304.972 9.66831 304.532 9.77894 304.174 10.0002C303.816 10.2162 303.636 10.5059 303.636 10.8694C303.636 11.1591 303.752 11.404 303.984 11.6042C304.216 11.8044 304.614 11.965 305.177 12.0862L307.374 12.5287C308.554 12.771 309.434 13.1608 310.013 13.6981C310.592 14.2354 310.882 14.9413 310.882 15.8157C310.882 16.6112 310.648 17.3091 310.179 17.9097C309.715 18.5102 309.078 18.979 308.267 19.3162C307.461 19.648 306.531 19.814 305.478 19.814C303.871 19.814 302.591 19.4795 301.637 18.8105C300.689 18.1362 300.133 17.2196 299.97 16.0607L303.281 15.8869C303.381 16.3768 303.623 16.7508 304.008 17.0089C304.392 17.2617 304.885 17.3882 305.485 17.3882C306.075 17.3882 306.549 17.2749 306.908 17.0484C307.271 16.8166 307.456 16.519 307.461 16.1555C307.456 15.85 307.326 15.5998 307.074 15.4049C306.821 15.2047 306.431 15.0519 305.904 14.9466L303.802 14.5278C302.617 14.2907 301.735 13.8799 301.155 13.2951C300.581 12.7104 300.294 11.965 300.294 11.059C300.294 10.2794 300.505 9.60774 300.926 9.04409C301.353 8.48044 301.951 8.04586 302.72 7.74033C303.494 7.4348 304.4 7.28204 305.438 7.28204C306.971 7.28204 308.177 7.606 309.057 8.25393C309.942 8.90186 310.458 9.7842 310.606 10.901ZM318.485 19.814C317.258 19.814 316.197 19.5532 315.301 19.0317C314.411 18.5049 313.723 17.7727 313.239 16.8351C312.754 15.8921 312.512 14.7991 312.512 13.5559C312.512 12.3022 312.754 11.2065 313.239 10.2688C313.723 9.32591 314.411 8.5937 315.301 8.07219C316.197 7.54542 317.258 7.28204 318.485 7.28204C319.713 7.28204 320.772 7.54542 321.662 8.07219C322.557 8.5937 323.248 9.32591 323.732 10.2688C324.217 11.2065 324.459 12.3022 324.459 13.5559C324.459 14.7991 324.217 15.8921 323.732 16.8351C323.248 17.7727 322.557 18.5049 321.662 19.0317C320.772 19.5532 319.713 19.814 318.485 19.814ZM318.501 17.2064C319.06 17.2064 319.526 17.0484 319.9 16.7323C320.274 16.411 320.556 15.9738 320.745 15.4207C320.94 14.8676 321.038 14.2381 321.038 13.5322C321.038 12.8263 320.94 12.1968 320.745 11.6437C320.556 11.0906 320.274 10.6534 319.9 10.332C319.526 10.0107 319.06 9.85005 318.501 9.85005C317.938 9.85005 317.464 10.0107 317.079 10.332C316.7 10.6534 316.413 11.0906 316.218 11.6437C316.028 12.1968 315.933 12.8263 315.933 13.5322C315.933 14.2381 316.028 14.8676 316.218 15.4207C316.413 15.9738 316.7 16.411 317.079 16.7323C317.464 17.0484 317.938 17.2064 318.501 17.2064ZM332.132 19.814C330.888 19.814 329.819 19.5506 328.923 19.0238C328.033 18.4918 327.348 17.7543 326.869 16.8113C326.395 15.8684 326.158 14.7833 326.158 13.5559C326.158 12.3127 326.398 11.2223 326.877 10.2846C327.362 9.34172 328.049 8.60687 328.939 8.0801C329.83 7.54806 330.888 7.28204 332.116 7.28204C333.175 7.28204 334.102 7.47431 334.897 7.85885C335.693 8.24339 336.322 8.78334 336.786 9.47868C337.249 10.174 337.505 10.9905 337.552 11.9282H334.376C334.286 11.3224 334.049 10.8351 333.664 10.4664C333.285 10.0924 332.787 9.90536 332.171 9.90536C331.65 9.90536 331.194 10.0476 330.804 10.332C330.42 10.6112 330.119 11.0195 329.903 11.5568C329.687 12.0941 329.579 12.7447 329.579 13.5085C329.579 14.2828 329.685 14.9413 329.895 15.4839C330.111 16.0265 330.414 16.44 330.804 16.7244C331.194 17.0089 331.65 17.1511 332.171 17.1511C332.556 17.1511 332.901 17.0721 333.206 16.9141C333.517 16.756 333.772 16.5269 333.973 16.2266C334.178 15.9211 334.312 15.555 334.376 15.1283H337.552C337.499 16.0554 337.246 16.8719 336.793 17.5778C336.346 18.2784 335.727 18.8263 334.937 19.2213C334.146 19.6164 333.211 19.814 332.132 19.814ZM339.707 19.5769V7.44007H343.073V19.5769H339.707ZM341.398 5.87555C340.898 5.87555 340.468 5.70962 340.11 5.37775C339.757 5.04062 339.581 4.63764 339.581 4.16881C339.581 3.70525 339.757 3.30754 340.11 2.97567C340.468 2.63854 340.898 2.46997 341.398 2.46997C341.899 2.46997 342.325 2.63854 342.678 2.97567C343.036 3.30754 343.215 3.70525 343.215 4.16881C343.215 4.63764 343.036 5.04062 342.678 5.37775C342.325 5.70962 341.899 5.87555 341.398 5.87555ZM349.231 19.8061C348.456 19.8061 347.766 19.6717 347.16 19.4031C346.555 19.1291 346.075 18.7262 345.722 18.1941C345.375 17.6568 345.201 16.9878 345.201 16.1871C345.201 15.5129 345.325 14.9466 345.572 14.4883C345.82 14.03 346.157 13.6612 346.584 13.3821C347.01 13.1029 347.495 12.8922 348.037 12.7499C348.585 12.6077 349.159 12.5076 349.76 12.4497C350.466 12.3759 351.035 12.3074 351.467 12.2442C351.899 12.1758 352.212 12.0757 352.407 11.944C352.602 11.8123 352.699 11.6174 352.699 11.3593V11.3118C352.699 10.8114 352.541 10.4242 352.225 10.1503C351.914 9.87639 351.472 9.73943 350.898 9.73943C350.292 9.73943 349.81 9.87376 349.452 10.1424C349.094 10.4058 348.857 10.7377 348.741 11.138L345.627 10.8852C345.785 10.1477 346.096 9.51028 346.56 8.97298C347.023 8.4304 347.621 8.01425 348.353 7.72452C349.091 7.42953 349.944 7.28204 350.914 7.28204C351.588 7.28204 352.233 7.36105 352.849 7.51908C353.471 7.67711 354.022 7.92206 354.501 8.25393C354.986 8.5858 355.367 9.01248 355.647 9.53399C355.926 10.0502 356.065 10.6692 356.065 11.3909V19.5769H352.873V17.8939H352.778C352.583 18.2731 352.323 18.6076 351.996 18.8974C351.67 19.1818 351.277 19.4057 350.819 19.569C350.36 19.727 349.831 19.8061 349.231 19.8061ZM350.195 17.483C350.69 17.483 351.127 17.3855 351.506 17.1906C351.885 16.9905 352.183 16.7218 352.399 16.3847C352.615 16.0475 352.723 15.6656 352.723 15.2389V13.951C352.618 14.0195 352.473 14.0827 352.288 14.1406C352.109 14.1933 351.907 14.2433 351.68 14.2907C351.454 14.3329 351.227 14.3724 351.001 14.4093C350.774 14.4409 350.569 14.4698 350.384 14.4962C349.989 14.5541 349.644 14.6463 349.349 14.7727C349.054 14.8992 348.825 15.0704 348.662 15.2863C348.498 15.4971 348.417 15.7604 348.417 16.0765C348.417 16.5348 348.583 16.8851 348.914 17.1274C349.252 17.3645 349.678 17.483 350.195 17.483ZM365.133 7.44007V9.96857H357.824V7.44007H365.133ZM359.483 4.53228H362.849V15.8474C362.849 16.1582 362.896 16.4005 362.991 16.5743C363.086 16.7429 363.218 16.8614 363.386 16.9299C363.56 16.9984 363.76 17.0326 363.987 17.0326C364.145 17.0326 364.303 17.0194 364.461 16.9931C364.619 16.9615 364.74 16.9378 364.824 16.922L365.354 19.4268C365.185 19.4795 364.948 19.54 364.643 19.6085C364.337 19.6823 363.966 19.727 363.528 19.7428C362.717 19.7744 362.006 19.6665 361.395 19.4189C360.789 19.1713 360.318 18.7867 359.981 18.2652C359.644 17.7437 359.478 17.0853 359.483 16.2898V4.53228ZM372.726 19.814C371.477 19.814 370.403 19.5611 369.502 19.0554C368.607 18.5444 367.917 17.8228 367.432 16.8904C366.947 15.9527 366.705 14.8439 366.705 13.5638C366.705 12.3153 366.947 11.2197 367.432 10.2767C367.917 9.33381 368.599 8.59897 369.478 8.07219C370.363 7.54542 371.401 7.28204 372.592 7.28204C373.392 7.28204 374.138 7.41109 374.828 7.66921C375.523 7.92206 376.129 8.30397 376.645 8.81494C377.167 9.32591 377.572 9.96857 377.862 10.7429C378.152 11.512 378.297 12.4128 378.297 13.4453V14.3698H368.048V12.2837H375.128C375.128 11.7991 375.023 11.3698 374.812 10.9958C374.601 10.6218 374.309 10.3294 373.935 10.1187C373.566 9.90273 373.137 9.79474 372.647 9.79474C372.136 9.79474 371.683 9.91326 371.288 10.1503C370.898 10.3821 370.593 10.6955 370.371 11.0906C370.15 11.4804 370.037 11.915 370.032 12.3944V14.3777C370.032 14.9782 370.142 15.4971 370.363 15.9343C370.59 16.3715 370.909 16.7086 371.319 16.9457C371.73 17.1827 372.218 17.3012 372.781 17.3012C373.155 17.3012 373.498 17.2486 373.808 17.1432C374.119 17.0379 374.385 16.8798 374.607 16.6691C374.828 16.4584 374.996 16.2003 375.112 15.8948L378.225 16.1002C378.067 16.8482 377.743 17.5014 377.254 18.0598C376.769 18.6129 376.142 19.0449 375.373 19.3557C374.609 19.6612 373.727 19.814 372.726 19.814ZM390.591 10.901L387.51 11.0906C387.457 10.8272 387.344 10.5902 387.17 10.3795C386.996 10.1635 386.767 9.99228 386.483 9.86585C386.203 9.73416 385.869 9.66831 385.479 9.66831C384.958 9.66831 384.518 9.77894 384.16 10.0002C383.801 10.2162 383.622 10.5059 383.622 10.8694C383.622 11.1591 383.738 11.404 383.97 11.6042C384.202 11.8044 384.599 11.965 385.163 12.0862L387.36 12.5287C388.54 12.771 389.419 13.1608 389.999 13.6981C390.578 14.2354 390.868 14.9413 390.868 15.8157C390.868 16.6112 390.634 17.3091 390.165 17.9097C389.701 18.5102 389.064 18.979 388.253 19.3162C387.447 19.648 386.517 19.814 385.463 19.814C383.857 19.814 382.577 19.4795 381.623 18.8105C380.675 18.1362 380.119 17.2196 379.956 16.0607L383.267 15.8869C383.367 16.3768 383.609 16.7508 383.994 17.0089C384.378 17.2617 384.871 17.3882 385.471 17.3882C386.061 17.3882 386.535 17.2749 386.893 17.0484C387.257 16.8166 387.441 16.519 387.447 16.1555C387.441 15.85 387.312 15.5998 387.059 15.4049C386.807 15.2047 386.417 15.0519 385.89 14.9466L383.788 14.5278C382.603 14.2907 381.721 13.8799 381.141 13.2951C380.567 12.7104 380.28 11.965 380.28 11.059C380.28 10.2794 380.491 9.60774 380.912 9.04409C381.339 8.48044 381.937 8.04586 382.706 7.74033C383.48 7.4348 384.386 7.28204 385.424 7.28204C386.957 7.28204 388.163 7.606 389.043 8.25393C389.928 8.90186 390.444 9.7842 390.591 10.901Z" fill="#111151"/>
<path d="M74.8357 33.1379H73.627C73.5556 32.7902 73.4305 32.4848 73.2518 32.2216C73.0763 31.9584 72.8619 31.7375 72.6084 31.5588C72.3583 31.3768 72.0805 31.2404 71.775 31.1494C71.4696 31.0584 71.1512 31.0129 70.8198 31.0129C70.2155 31.0129 69.668 31.1656 69.1774 31.4711C68.69 31.7765 68.3017 32.2265 68.0126 32.8211C67.7266 33.4157 67.5837 34.1451 67.5837 35.0093C67.5837 35.8736 67.7266 36.603 68.0126 37.1976C68.3017 37.7922 68.69 38.2422 69.1774 38.5476C69.668 38.8531 70.2155 39.0058 70.8198 39.0058C71.1512 39.0058 71.4696 38.9603 71.775 38.8693C72.0805 38.7783 72.3583 38.6435 72.6084 38.4648C72.8619 38.2828 73.0763 38.0603 73.2518 37.7971C73.4305 37.5307 73.5556 37.2253 73.627 36.8808H74.8357C74.7447 37.391 74.579 37.8475 74.3386 38.2503C74.0982 38.6532 73.7992 38.996 73.4418 39.2787C73.0844 39.5581 72.6832 39.7709 72.238 39.9171C71.7962 40.0634 71.3234 40.1365 70.8198 40.1365C69.9685 40.1365 69.2115 39.9285 68.5487 39.5126C67.8858 39.0967 67.3644 38.5054 66.9842 37.7386C66.6041 36.9718 66.414 36.0621 66.414 35.0093C66.414 33.9566 66.6041 33.0469 66.9842 32.2801C67.3644 31.5133 67.8858 30.922 68.5487 30.5061C69.2115 30.0902 69.9685 29.8822 70.8198 29.8822C71.3234 29.8822 71.7962 29.9553 72.238 30.1016C72.6832 30.2478 73.0844 30.4622 73.4418 30.7449C73.7992 31.0243 74.0982 31.3655 74.3386 31.7684C74.579 32.168 74.7447 32.6245 74.8357 33.1379ZM77.7831 35.4967V40H76.6329V30.0187H77.7831V33.6837H77.8805C78.056 33.2971 78.3192 32.99 78.6701 32.7626C79.0242 32.5319 79.4954 32.4166 80.0835 32.4166C80.5936 32.4166 81.0403 32.5189 81.4237 32.7236C81.8071 32.925 82.1044 33.2353 82.3156 33.6545C82.53 34.0704 82.6373 34.6 82.6373 35.2433V40H81.4871V35.3213C81.4871 34.7267 81.3327 34.2669 81.0241 33.942C80.7187 33.6139 80.2946 33.4498 79.752 33.4498C79.3751 33.4498 79.0372 33.5294 78.7383 33.6886C78.4426 33.8478 78.2087 34.0801 78.0365 34.3855C77.8676 34.6909 77.7831 35.0613 77.7831 35.4967ZM86.9444 40.1755C86.47 40.1755 86.0395 40.0861 85.6529 39.9074C85.2662 39.7254 84.9592 39.4639 84.7317 39.1227C84.5043 38.7783 84.3906 38.3624 84.3906 37.8751C84.3906 37.4462 84.475 37.0985 84.644 36.8321C84.813 36.5624 85.0388 36.3512 85.3214 36.1985C85.6041 36.0458 85.916 35.9321 86.2572 35.8574C86.6016 35.7794 86.9476 35.7177 87.2953 35.6722C87.7502 35.6137 88.1189 35.5698 88.4016 35.5406C88.6875 35.5081 88.8955 35.4545 89.0254 35.3797C89.1587 35.305 89.2253 35.1751 89.2253 34.9899V34.9509C89.2253 34.47 89.0937 34.0963 88.8305 33.8299C88.5706 33.5635 88.1758 33.4303 87.6462 33.4303C87.0971 33.4303 86.6666 33.5505 86.3547 33.7909C86.0427 34.0314 85.8234 34.288 85.6967 34.561L84.605 34.1711C84.8 33.7162 85.0599 33.362 85.3848 33.1086C85.713 32.8519 86.0704 32.6732 86.457 32.5725C86.8469 32.4685 87.2303 32.4166 87.6072 32.4166C87.8476 32.4166 88.1238 32.4458 88.4357 32.5043C88.7509 32.5595 89.0547 32.6749 89.3471 32.8503C89.6428 33.0258 89.8881 33.2906 90.083 33.6447C90.278 33.9989 90.3755 34.4732 90.3755 35.0678V40H89.2253V38.9863H89.1668C89.0888 39.1487 88.9588 39.3226 88.7769 39.5078C88.5949 39.693 88.3529 39.8505 88.0507 39.9805C87.7485 40.1105 87.3798 40.1755 86.9444 40.1755ZM87.1198 39.1422C87.5747 39.1422 87.9581 39.0529 88.27 38.8742C88.5852 38.6955 88.8224 38.4648 88.9816 38.1821C89.144 37.8994 89.2253 37.6021 89.2253 37.2902V36.2375C89.1765 36.296 89.0693 36.3496 88.9036 36.3983C88.7411 36.4438 88.5527 36.4845 88.3383 36.5202C88.1271 36.5527 87.9207 36.5819 87.7193 36.6079C87.5211 36.6307 87.3603 36.6502 87.2368 36.6664C86.9379 36.7054 86.6585 36.7687 86.3985 36.8565C86.1418 36.941 85.9339 37.0693 85.7747 37.2415C85.6187 37.4105 85.5408 37.6411 85.5408 37.9336C85.5408 38.3332 85.6886 38.6354 85.9843 38.8401C86.2832 39.0415 86.6617 39.1422 87.1198 39.1422ZM92.4748 40V32.514H93.586V33.6447H93.664C93.8004 33.2743 94.0474 32.9738 94.4048 32.7431C94.7622 32.5124 95.1651 32.3971 95.6134 32.3971C95.6979 32.3971 95.8035 32.3987 95.9302 32.4019C96.0569 32.4052 96.1528 32.4101 96.2178 32.4166V33.5862C96.1788 33.5765 96.0894 33.5619 95.9497 33.5424C95.8133 33.5196 95.6687 33.5083 95.516 33.5083C95.1521 33.5083 94.8272 33.5846 94.5412 33.7373C94.2586 33.8868 94.0344 34.0947 93.8687 34.3611C93.7062 34.6243 93.625 34.9249 93.625 35.2628V40H92.4748ZM101.306 32.514V33.4888H97.4265V32.514H101.306ZM98.5571 30.7205H99.7073V37.8556C99.7073 38.1805 99.7544 38.4242 99.8487 38.5866C99.9461 38.7458 100.07 38.8531 100.219 38.9083C100.372 38.9603 100.533 38.9863 100.702 38.9863C100.828 38.9863 100.932 38.9798 101.013 38.9668C101.095 38.9505 101.16 38.9375 101.208 38.9278L101.442 39.961C101.364 39.9903 101.256 40.0195 101.116 40.0487C100.976 40.0812 100.799 40.0975 100.585 40.0975C100.26 40.0975 99.9413 40.0276 99.6294 39.8879C99.3207 39.7482 99.064 39.5354 98.8593 39.2495C98.6579 38.9635 98.5571 38.6029 98.5571 38.1675V30.7205ZM106.094 40.156C105.373 40.156 104.751 39.9968 104.228 39.6783C103.708 39.3567 103.307 38.9083 103.024 38.3332C102.744 37.7549 102.605 37.0823 102.605 36.3155C102.605 35.5487 102.744 34.8729 103.024 34.288C103.307 33.7 103.7 33.2418 104.203 32.9137C104.71 32.5823 105.302 32.4166 105.977 32.4166C106.367 32.4166 106.752 32.4815 107.132 32.6115C107.513 32.7415 107.859 32.9527 108.17 33.2451C108.482 33.5342 108.731 33.9176 108.916 34.3953C109.101 34.8729 109.194 35.461 109.194 36.1595V36.6469H103.424V35.6527H108.024C108.024 35.2303 107.94 34.8534 107.771 34.522C107.605 34.1906 107.368 33.929 107.059 33.7373C106.754 33.5456 106.393 33.4498 105.977 33.4498C105.519 33.4498 105.123 33.5635 104.788 33.7909C104.457 34.0151 104.202 34.3075 104.023 34.6682C103.844 35.0288 103.755 35.4155 103.755 35.8281V36.4909C103.755 37.0563 103.852 37.5355 104.047 37.9287C104.246 38.3186 104.52 38.6159 104.871 38.8206C105.222 39.022 105.63 39.1227 106.094 39.1227C106.396 39.1227 106.669 39.0805 106.913 38.996C107.16 38.9083 107.373 38.7783 107.552 38.6061C107.73 38.4307 107.868 38.213 107.966 37.9531L109.077 38.265C108.96 38.6419 108.763 38.9733 108.487 39.2592C108.211 39.5419 107.87 39.7628 107.464 39.922C107.058 40.078 106.601 40.156 106.094 40.156ZM110.944 40V32.514H112.055V33.6447H112.133C112.269 33.2743 112.516 32.9738 112.874 32.7431C113.231 32.5124 113.634 32.3971 114.082 32.3971C114.167 32.3971 114.272 32.3987 114.399 32.4019C114.526 32.4052 114.622 32.4101 114.687 32.4166V33.5862C114.648 33.5765 114.558 33.5619 114.419 33.5424C114.282 33.5196 114.137 33.5083 113.985 33.5083C113.621 33.5083 113.296 33.5846 113.01 33.7373C112.727 33.8868 112.503 34.0947 112.337 34.3611C112.175 34.6243 112.094 34.9249 112.094 35.2628V40H110.944ZM118.961 40.156C118.24 40.156 117.617 39.9968 117.094 39.6783C116.574 39.3567 116.173 38.9083 115.89 38.3332C115.611 37.7549 115.471 37.0823 115.471 36.3155C115.471 35.5487 115.611 34.8729 115.89 34.288C116.173 33.7 116.566 33.2418 117.07 32.9137C117.577 32.5823 118.168 32.4166 118.844 32.4166C119.234 32.4166 119.619 32.4815 119.999 32.6115C120.379 32.7415 120.725 32.9527 121.037 33.2451C121.349 33.5342 121.597 33.9176 121.783 34.3953C121.968 34.8729 122.06 35.461 122.06 36.1595V36.6469H116.29V35.6527H120.891C120.891 35.2303 120.806 34.8534 120.637 34.522C120.472 34.1906 120.234 33.929 119.926 33.7373C119.62 33.5456 119.26 33.4498 118.844 33.4498C118.386 33.4498 117.989 33.5635 117.655 33.7909C117.323 34.0151 117.068 34.3075 116.889 34.6682C116.711 35.0288 116.621 35.4155 116.621 35.8281V36.4909C116.621 37.0563 116.719 37.5355 116.914 37.9287C117.112 38.3186 117.387 38.6159 117.738 38.8206C118.088 39.022 118.496 39.1227 118.961 39.1227C119.263 39.1227 119.536 39.0805 119.78 38.996C120.027 38.9083 120.239 38.7783 120.418 38.6061C120.597 38.4307 120.735 38.213 120.832 37.9531L121.944 38.265C121.827 38.6419 121.63 38.9733 121.354 39.2592C121.078 39.5419 120.736 39.7628 120.33 39.922C119.924 40.078 119.468 40.156 118.961 40.156ZM126.637 40.156C126.013 40.156 125.462 39.9984 124.985 39.6832C124.507 39.3648 124.133 38.9164 123.864 38.3381C123.594 37.7565 123.459 37.0693 123.459 36.2765C123.459 35.4902 123.594 34.8079 123.864 34.2296C124.133 33.6512 124.509 33.2045 124.99 32.8893C125.47 32.5741 126.026 32.4166 126.656 32.4166C127.144 32.4166 127.529 32.4978 127.811 32.6602C128.097 32.8194 128.315 33.0014 128.464 33.2061C128.617 33.4075 128.736 33.5732 128.82 33.7032H128.918V30.0187H130.068V40H128.957V38.8498H128.82C128.736 38.9863 128.616 39.1585 128.46 39.3664C128.304 39.5711 128.081 39.7547 127.792 39.9171C127.503 40.0764 127.118 40.156 126.637 40.156ZM126.793 39.1227C127.254 39.1227 127.644 39.0025 127.963 38.7621C128.281 38.5184 128.523 38.1821 128.689 37.7532C128.854 37.3211 128.937 36.8224 128.937 36.257C128.937 35.6982 128.856 35.2092 128.694 34.79C128.531 34.3676 128.291 34.0395 127.972 33.8055C127.654 33.5684 127.261 33.4498 126.793 33.4498C126.305 33.4498 125.899 33.5749 125.574 33.825C125.253 34.072 125.011 34.4083 124.848 34.8339C124.689 35.2563 124.609 35.7307 124.609 36.257C124.609 36.7899 124.691 37.274 124.853 37.7094C125.019 38.1415 125.262 38.4859 125.584 38.7426C125.909 38.996 126.312 39.1227 126.793 39.1227ZM136.76 40H135.492L139.157 30.0187H140.405L144.07 40H142.803L139.82 31.5978H139.742L136.76 40ZM137.227 36.1011H142.335V37.1733H137.227V36.1011ZM148.51 40.156C147.808 40.156 147.204 39.9903 146.697 39.6588C146.19 39.3274 145.8 38.8709 145.527 38.2893C145.254 37.7077 145.118 37.0433 145.118 36.296C145.118 35.5357 145.258 34.8648 145.537 34.2832C145.82 33.6983 146.213 33.2418 146.716 32.9137C147.223 32.5823 147.815 32.4166 148.49 32.4166C149.017 32.4166 149.491 32.514 149.914 32.709C150.336 32.9039 150.682 33.1768 150.952 33.5277C151.221 33.8787 151.389 34.288 151.454 34.7559H150.303C150.216 34.4148 150.021 34.1126 149.719 33.8494C149.42 33.583 149.017 33.4498 148.51 33.4498C148.062 33.4498 147.668 33.5667 147.331 33.8007C146.996 34.0314 146.734 34.3579 146.546 34.7803C146.361 35.1994 146.268 35.6917 146.268 36.257C146.268 36.8354 146.359 37.339 146.541 37.7679C146.726 38.1967 146.986 38.5298 147.321 38.767C147.659 39.0041 148.055 39.1227 148.51 39.1227C148.809 39.1227 149.08 39.0708 149.324 38.9668C149.568 38.8628 149.774 38.7133 149.943 38.5184C150.112 38.3235 150.232 38.0895 150.303 37.8166H151.454C151.389 38.2585 151.228 38.6565 150.971 39.0106C150.718 39.3615 150.381 39.641 149.962 39.8489C149.546 40.0536 149.062 40.156 148.51 40.156ZM156.176 40.156C155.474 40.156 154.87 39.9903 154.363 39.6588C153.856 39.3274 153.466 38.8709 153.194 38.2893C152.921 37.7077 152.784 37.0433 152.784 36.296C152.784 35.5357 152.924 34.8648 153.203 34.2832C153.486 33.6983 153.879 33.2418 154.383 32.9137C154.89 32.5823 155.481 32.4166 156.157 32.4166C156.683 32.4166 157.157 32.514 157.58 32.709C158.002 32.9039 158.348 33.1768 158.618 33.5277C158.888 33.8787 159.055 34.288 159.12 34.7559H157.97C157.882 34.4148 157.687 34.1126 157.385 33.8494C157.086 33.583 156.683 33.4498 156.176 33.4498C155.728 33.4498 155.335 33.5667 154.997 33.8007C154.662 34.0314 154.401 34.3579 154.212 34.7803C154.027 35.1994 153.934 35.6917 153.934 36.257C153.934 36.8354 154.025 37.339 154.207 37.7679C154.392 38.1967 154.652 38.5298 154.987 38.767C155.325 39.0041 155.721 39.1227 156.176 39.1227C156.475 39.1227 156.746 39.0708 156.99 38.9668C157.234 38.8628 157.44 38.7133 157.609 38.5184C157.778 38.3235 157.898 38.0895 157.97 37.8166H159.12C159.055 38.2585 158.894 38.6565 158.637 39.0106C158.384 39.3615 158.048 39.641 157.629 39.8489C157.213 40.0536 156.729 40.156 156.176 40.156ZM163.843 40.156C163.167 40.156 162.574 39.9951 162.064 39.6735C161.557 39.3518 161.16 38.9018 160.874 38.3235C160.592 37.7451 160.45 37.0693 160.45 36.296C160.45 35.5162 160.592 34.8355 160.874 34.2539C161.16 33.6723 161.557 33.2207 162.064 32.899C162.574 32.5774 163.167 32.4166 163.843 32.4166C164.518 32.4166 165.11 32.5774 165.617 32.899C166.127 33.2207 166.523 33.6723 166.806 34.2539C167.092 34.8355 167.235 35.5162 167.235 36.296C167.235 37.0693 167.092 37.7451 166.806 38.3235C166.523 38.9018 166.127 39.3518 165.617 39.6735C165.11 39.9951 164.518 40.156 163.843 40.156ZM163.843 39.1227C164.356 39.1227 164.778 38.9911 165.11 38.728C165.441 38.4648 165.686 38.1188 165.846 37.6899C166.005 37.261 166.084 36.7964 166.084 36.296C166.084 35.7956 166.005 35.3294 165.846 34.8973C165.686 34.4651 165.441 34.1158 165.11 33.8494C164.778 33.583 164.356 33.4498 163.843 33.4498C163.329 33.4498 162.907 33.583 162.575 33.8494C162.244 34.1158 161.999 34.4651 161.839 34.8973C161.68 35.3294 161.601 35.7956 161.601 36.296C161.601 36.7964 161.68 37.261 161.839 37.6899C161.999 38.1188 162.244 38.4648 162.575 38.728C162.907 38.9911 163.329 39.1227 163.843 39.1227ZM173.708 36.9393V32.514H174.858V40H173.708V38.7328H173.63C173.455 39.113 173.182 39.4363 172.811 39.7027C172.441 39.9659 171.973 40.0975 171.408 40.0975C170.94 40.0975 170.524 39.9951 170.16 39.7904C169.796 39.5825 169.51 39.2706 169.302 38.8547C169.094 38.4355 168.99 37.9076 168.99 37.2707V32.514H170.141V37.1928C170.141 37.7386 170.293 38.174 170.599 38.4989C170.907 38.8238 171.301 38.9863 171.778 38.9863C172.064 38.9863 172.355 38.9132 172.651 38.767C172.949 38.6207 173.2 38.3966 173.401 38.0944C173.606 37.7922 173.708 37.4072 173.708 36.9393ZM178.115 35.4967V40H176.965V32.514H178.076V33.6837H178.174C178.349 33.3036 178.616 32.9981 178.973 32.7675C179.33 32.5335 179.792 32.4166 180.357 32.4166C180.864 32.4166 181.307 32.5205 181.688 32.7285C182.068 32.9332 182.363 33.2451 182.575 33.6642C182.786 34.0801 182.891 34.6065 182.891 35.2433V40H181.741V35.3213C181.741 34.7332 181.588 34.275 181.283 33.9469C180.978 33.6155 180.558 33.4498 180.026 33.4498C179.658 33.4498 179.33 33.5294 179.041 33.6886C178.755 33.8478 178.529 34.0801 178.364 34.3855C178.198 34.6909 178.115 35.0613 178.115 35.4967ZM188.249 32.514V33.4888H184.369V32.514H188.249ZM185.5 30.7205H186.65V37.8556C186.65 38.1805 186.697 38.4242 186.792 38.5866C186.889 38.7458 187.012 38.8531 187.162 38.9083C187.315 38.9603 187.475 38.9863 187.644 38.9863C187.771 38.9863 187.875 38.9798 187.956 38.9668C188.038 38.9505 188.103 38.9375 188.151 38.9278L188.385 39.961C188.307 39.9903 188.198 40.0195 188.059 40.0487C187.919 40.0812 187.742 40.0975 187.527 40.0975C187.203 40.0975 186.884 40.0276 186.572 39.8879C186.264 39.7482 186.007 39.5354 185.802 39.2495C185.601 38.9635 185.5 38.6029 185.5 38.1675V30.7205ZM192.182 40.1755C191.707 40.1755 191.277 40.0861 190.89 39.9074C190.504 39.7254 190.197 39.4639 189.969 39.1227C189.742 38.7783 189.628 38.3624 189.628 37.8751C189.628 37.4462 189.712 37.0985 189.881 36.8321C190.05 36.5624 190.276 36.3512 190.559 36.1985C190.842 36.0458 191.153 35.9321 191.495 35.8574C191.839 35.7794 192.185 35.7177 192.533 35.6722C192.988 35.6137 193.356 35.5698 193.639 35.5406C193.925 35.5081 194.133 35.4545 194.263 35.3797C194.396 35.305 194.463 35.1751 194.463 34.9899V34.9509C194.463 34.47 194.331 34.0963 194.068 33.8299C193.808 33.5635 193.413 33.4303 192.884 33.4303C192.335 33.4303 191.904 33.5505 191.592 33.7909C191.28 34.0314 191.061 34.288 190.934 34.561L189.842 34.1711C190.037 33.7162 190.297 33.362 190.622 33.1086C190.95 32.8519 191.308 32.6732 191.694 32.5725C192.084 32.4685 192.468 32.4166 192.845 32.4166C193.085 32.4166 193.361 32.4458 193.673 32.5043C193.988 32.5595 194.292 32.6749 194.585 32.8503C194.88 33.0258 195.126 33.2906 195.32 33.6447C195.515 33.9989 195.613 34.4732 195.613 35.0678V40H194.463V38.9863H194.404C194.326 39.1487 194.196 39.3226 194.014 39.5078C193.832 39.693 193.59 39.8505 193.288 39.9805C192.986 40.1105 192.617 40.1755 192.182 40.1755ZM192.357 39.1422C192.812 39.1422 193.196 39.0529 193.507 38.8742C193.823 38.6955 194.06 38.4648 194.219 38.1821C194.381 37.8994 194.463 37.6021 194.463 37.2902V36.2375C194.414 36.296 194.307 36.3496 194.141 36.3983C193.979 36.4438 193.79 36.4845 193.576 36.5202C193.364 36.5527 193.158 36.5819 192.957 36.6079C192.759 36.6307 192.598 36.6502 192.474 36.6664C192.175 36.7054 191.896 36.7687 191.636 36.8565C191.379 36.941 191.171 37.0693 191.012 37.2415C190.856 37.4105 190.778 37.6411 190.778 37.9336C190.778 38.3332 190.926 38.6354 191.222 38.8401C191.521 39.0415 191.899 39.1422 192.357 39.1422ZM198.862 35.4967V40H197.712V32.514H198.823V33.6837H198.921C199.096 33.3036 199.363 32.9981 199.72 32.7675C200.078 32.5335 200.539 32.4166 201.104 32.4166C201.611 32.4166 202.055 32.5205 202.435 32.7285C202.815 32.9332 203.111 33.2451 203.322 33.6642C203.533 34.0801 203.639 34.6065 203.639 35.2433V40H202.488V35.3213C202.488 34.7332 202.336 34.275 202.03 33.9469C201.725 33.6155 201.306 33.4498 200.773 33.4498C200.406 33.4498 200.078 33.5294 199.788 33.6886C199.502 33.8478 199.277 34.0801 199.111 34.3855C198.945 34.6909 198.862 35.0613 198.862 35.4967ZM208.996 32.514V33.4888H205.117V32.514H208.996ZM206.247 30.7205H207.397V37.8556C207.397 38.1805 207.445 38.4242 207.539 38.5866C207.636 38.7458 207.76 38.8531 207.909 38.9083C208.062 38.9603 208.223 38.9863 208.392 38.9863C208.518 38.9863 208.622 38.9798 208.704 38.9668C208.785 38.9505 208.85 38.9375 208.899 38.9278L209.132 39.961C209.054 39.9903 208.946 40.0195 208.806 40.0487C208.666 40.0812 208.489 40.0975 208.275 40.0975C207.95 40.0975 207.631 40.0276 207.319 39.8879C207.011 39.7482 206.754 39.5354 206.549 39.2495C206.348 38.9635 206.247 38.6029 206.247 38.1675V30.7205ZM215.895 34.1906L214.861 34.483C214.796 34.3108 214.701 34.1435 214.574 33.981C214.45 33.8153 214.282 33.6788 214.067 33.5716C213.853 33.4644 213.578 33.4108 213.243 33.4108C212.785 33.4108 212.404 33.5164 212.098 33.7276C211.796 33.9355 211.645 34.2003 211.645 34.522C211.645 34.8079 211.749 35.0337 211.957 35.1994C212.165 35.3651 212.49 35.5032 212.931 35.6137L214.043 35.8866C214.712 36.0491 215.211 36.2976 215.539 36.6323C215.867 36.9637 216.031 37.391 216.031 37.9141C216.031 38.3429 215.908 38.7263 215.661 39.0643C215.417 39.4022 215.076 39.6686 214.637 39.8635C214.199 40.0585 213.689 40.156 213.107 40.156C212.343 40.156 211.711 39.9903 211.211 39.6588C210.711 39.3274 210.394 38.8433 210.261 38.2065L211.352 37.9336C211.456 38.3364 211.653 38.6386 211.942 38.8401C212.235 39.0415 212.616 39.1422 213.087 39.1422C213.624 39.1422 214.049 39.0285 214.364 38.8011C214.683 38.5704 214.842 38.2942 214.842 37.9725C214.842 37.7126 214.751 37.4949 214.569 37.3195C214.387 37.1408 214.108 37.0076 213.731 36.9198L212.483 36.6274C211.798 36.465 211.294 36.2131 210.972 35.872C210.654 35.5276 210.495 35.0971 210.495 34.5805C210.495 34.1581 210.613 33.7844 210.85 33.4595C211.091 33.1346 211.417 32.8796 211.83 32.6944C212.246 32.5092 212.717 32.4166 213.243 32.4166C213.984 32.4166 214.566 32.579 214.988 32.9039C215.414 33.2288 215.716 33.6577 215.895 34.1906Z" fill="#757575"/>
<g clip-path="url(#clip0_124_136)">
<path fill-rule="evenodd" clip-rule="evenodd" d="M24.032 35.7506V40.5149H25.8086C26.9916 40.5149 27.9595 39.5485 27.9595 38.3674V37.8967C27.9595 36.7155 26.9916 35.7491 25.8086 35.7491H24.032V35.7506ZM22.768 34.5518H23.3248V34.5415H25.8086C27.6575 34.5415 29.1705 36.0521 29.1705 37.8981V38.3688C29.1705 40.2149 27.6575 41.7255 25.8086 41.7255H23.3248V41.7152H22.768V34.5532V34.5518ZM33.8287 34.5518H35.0927V41.7137H33.8287V34.5518ZM42.8844 34.5518H44.1484L47.4985 41.7137H46.2345L45.5745 40.3016H41.4319L40.7719 41.7137H39.5079L42.8579 34.5518H42.8844ZM41.9784 39.1323H45.0265L43.5017 35.8727L41.977 39.1323H41.9784ZM12.7252 34.5518L16.473 39.4367V34.5518H17.737V41.7137H16.7956L13.0478 36.8288V41.7137H11.7838V34.5518H12.7252ZM40.4876 20.3484L46.0783 31.8438C47.6355 32.5145 49.0837 32.5292 50.4022 31.7541L44.0453 18.7716C42.88 19.31 41.6956 19.8366 40.489 20.3499L40.4876 20.3484ZM24.3251 4.05493C25.9044 4.02404 25.8366 1.00716 24.3251 0.771809L15.3637 0.72621C-1.84913 0.94685 -7.51946 29.3491 16.3743 32.1483C18.1274 32.0777 19.745 31.4908 20.8351 30.3361L26.3375 19.4615L25.3873 17.7831C26.0252 17.7111 26.666 17.6302 27.3098 17.5419L32.4911 7.30128C33.0096 6.17601 33.5547 6.09658 34.1337 7.27921L38.1231 15.4811C38.7227 15.3414 39.3223 15.1987 39.9233 15.0531C40.5995 14.8898 41.2846 14.7192 41.9755 14.5412L35.6849 1.69997C34.4401 0.290814 33.1525 0.0216334 31.7883 1.7794L19.1424 26.4455C18.534 27.5972 17.6972 28.2547 16.6675 28.5033C1.58489 29.0784 -2.39863 6.00686 15.922 3.89901L24.3251 4.05493ZM39.5108 20.7588L45.2106 32.3365C45.3727 32.5807 45.548 32.7205 45.741 32.7102L45.6275 33.3206C45.243 33.2515 44.9145 33.0014 44.6346 32.5851L38.9348 20.9957C39.1278 20.9177 39.3193 20.8383 39.5094 20.7588H39.5108ZM32.5058 7.92495L32.9566 7.44984L37.0344 15.7312L36.4142 15.8695L32.5058 7.92348V7.92495ZM5.27377 34.5518H6.53777V41.7137H5.27377V34.5518Z" fill="#0D70A2"/>
<path fill-rule="evenodd" clip-rule="evenodd" d="M25.3859 17.7849C30.103 17.248 34.9646 16.2551 39.9204 15.0548C43.5371 14.1781 47.4072 13.0926 51.0828 12.0482C44.8173 15.6005 36.9858 17.6201 29.8526 19.6456L31.946 23.9039L29.4784 25.0086L25.3844 17.7849H25.3859Z" fill="#F4772C"/>
<path fill-rule="evenodd" clip-rule="evenodd" d="M32.3881 20.5943C40.1577 18.3849 47.7623 15.7858 55.3021 13.0337C49.4035 16.2683 43.2853 19.3705 36.3848 22.0034L38.4149 26.0044L36.1727 27.2708L32.3881 20.5928V20.5943Z" fill="#6CBA4F"/>
</g>
<defs>
<clipPath id="clip0_124_136">
<rect width="54.8972" height="41.1729" fill="white" transform="translate(0.404785 0.551392)"/>
</clipPath>
</defs>
</svg>
